:SAMPLES-PER-SECOND 30
:FRAME-RANGE 1-744
:FULLY-SPECIFIED
:DEGREES
698
root  -59.3407 39.2952 -19.4363 -20.7683 75.311 -10.5805
RightUpLeg  2.11067 -1.77988 -0.0221432
RightLeg  11.7205 -5.4557 -3.99597
RightFoot  -6.16633 -0.433865 8.65407
RightToes  5.82063e-011 0 -3.6325e-017
Spine  11.4194 0.661179 8.9757
Spine1  1.47606 3.02615 -2.92269
HEad  -1.96874 -28.6789 -0.397756
LeftShoulder1  3.07858 -3.71612 -36.5658
LeftArm  19.5366 13.9321 -22.8122
LeftForeArm  -3.93169 -5.18786 -18.0658
LeftHand  -1.00832 -3.82885 12.9293
RightShoulder  6.08265 3.7686 70.5083
RightArm  14.188 3.73529 -6.83174
RightForeArm  21.3407 -3.86045 16.439
RightHand  1.84425 20.3964 7.71644
LeftUpLeg  16.3143 6.59432 24.0746
LeftLeg  17.8908 8.6789 3.43853
LeftFoot  2.95737 1.55018 -12.4639
LeftToes  1.25507e-010 -3.78807e-010 5.71421e-011
699
root  -59.0141 39.3257 -18.4609 -19.442 74.0111 -8.90555
RightUpLeg  3.10392 -1.53753 1.36718
RightLeg  11.9809 -4.74934 -3.99115
RightFoot  -7.25112 -0.317372 7.49384
RightToes  5.82063e-011 0 -3.6325e-017
Spine  11.7294 0.618882 9.70822
Spine1  1.45532 3.28771 -3.1455
HEad  -1.63501 -27.7005 -0.414962
LeftShoulder1  3.07338 -3.75613 -36.2682
LeftArm  12.4049 12.353 -23.8297
LeftForeArm  3.16813 -2.59229 -18.0653
LeftHand  -1.09986 -4.62597 12.9978
RightShoulder  6.52095 4.29761 70.467
RightArm  14.0355 3.82538 -6.60599
RightForeArm  21.0951 -3.46411 16.3671
RightHand  1.92944 20.4825 8.06506
LeftUpLeg  13.3821 6.72306 24.0865
LeftLeg  23.9006 7.90952 4.14173
LeftFoot  7.70959 0.290031 -2.00868
LeftToes  1.25507e-010 -3.78807e-010 5.71421e-011
700
root  -58.6773 39.3996 -17.5458 -17.3513 72.3223 -6.45537
RightUpLeg  4.42672 -1.27351 2.49663
RightLeg  11.5419 -3.66993 -4.06603
RightFoot  -7.91881 -0.244812 6.38356
RightToes  5.82063e-011 0 -3.6325e-017
Spine  12.0387 0.743513 10.4196
Spine1  1.43683 3.758 -3.85112
HEad  -1.26829 -26.768 -0.580099
LeftShoulder1  3.05518 -3.77808 -35.9006
LeftArm  12.5373 11.4779 -25.0057
LeftForeArm  1.68717 -3.93385 -17.7043
LeftHand  -1.10039 -4.02248 13.7987
RightShoulder  6.99085 4.88726 70.278
RightArm  14.5085 4.0688 -6.23301
RightForeArm  20.4894 -2.62606 16.3338
RightHand  1.91202 20.4723 7.99145
LeftUpLeg  11.1304 6.39589 22.9412
LeftLeg  28.3523 4.57781 3.00593
LeftFoot  4.71088 0.285962 -2.23124
LeftToes  1.25507e-010 -3.78807e-010 5.71421e-011
701
root  -58.3269 39.4852 -16.6831 -14.9083 70.3229 -3.78444
RightUpLeg  5.94882 -1.13089 3.17243
RightLeg  10.3808 -2.16323 -3.87854
RightFoot  -8.32007 -0.194856 5.23945
RightToes  5.82063e-011 0 -3.6325e-017
Spine  12.221 0.985604 10.9272
Spine1  1.34466 4.22486 -4.73135
HEad  -1.12741 -25.0652 -0.984521
LeftShoulder1  3.03796 -3.74763 -35.8405
LeftArm  12.1073 10.6427 -26.0701
LeftForeArm  2.02481 -5.00743 -17.2444
LeftHand  -1.19484 -5.17934 13.3804
RightShoulder  7.61742 5.68969 69.9655
RightArm  15.0357 4.45316 -5.92818
RightForeArm  19.8041 -1.61211 16.2565
RightHand  1.89627 20.3952 7.94771
LeftUpLeg  9.30873 6.1692 20.8647
LeftLeg  30.7035 -0.0618717 0.299656
LeftFoot  0.773908 0.205315 -1.97932
LeftToes  1.25507e-010 -3.78807e-010 5.71421e-011
702
root  -57.989 39.5756 -15.8829 -12.8555 67.8665 -1.64523
RightUpLeg  7.36979 -1.31508 3.51193
RightLeg  9.03813 0.131695 -3.36049
RightFoot  -8.41514 -0.158813 3.97708
RightToes  5.82063e-011 0 -3.6325e-017
Spine  12.5535 1.28388 11.5798
Spine1  0.951892 4.72375 -5.76522
HEad  -0.93396 -23.1647 -1.66976
LeftShoulder1  3.02076 -3.6707 -36.044
LeftArm  12.4542 9.87206 -27.0528
LeftForeArm  0.881035 -6.21118 -16.8131
LeftHand  -1.21247 -5.08043 13.6939
RightShoulder  8.39483 6.71491 69.4837
RightArm  15.5974 5.09922 -5.49964
RightForeArm  18.7429 -0.836692 16.2476
RightHand  1.89225 20.5551 7.87643
LeftUpLeg  7.72228 5.16021 17.9518
LeftLeg  31.0506 -1.51237 -0.642722
LeftFoot  -1.82649 0.27468 -3.16882
LeftToes  1.25507e-010 -3.78807e-010 5.71421e-011
703
root  -57.6611 39.681 -15.1276 -10.9362 65.1521 0.297882
RightUpLeg  8.74917 -1.63745 3.50295
RightLeg  7.60113 2.9308 -2.79342
RightFoot  -8.33327 -0.126307 2.65466
RightToes  5.82063e-011 0 -3.6325e-017
Spine  12.9586 1.70627 11.925
Spine1  0.494932 5.21429 -6.65524
HEad  -0.945107 -21.1782 -2.71501
LeftShoulder1  3.01751 -3.60784 -36.3612
LeftArm  13.1963 9.0068 -27.9733
LeftForeArm  0.335717 -7.03163 -16.5143
LeftHand  -1.25559 -5.92309 13.1571
RightShoulder  9.20766 7.81884 68.9138
RightArm  15.031 5.83084 -4.90002
RightForeArm  18.2002 -0.296843 16.0748
RightHand  1.84619 20.5372 7.67905
LeftUpLeg  6.17227 3.90617 14.5833
LeftLeg  29.9139 -0.362124 0.113727
LeftFoot  -3.93124 0.232091 -3.21943
LeftToes  1.25507e-010 -3.78807e-010 5.71421e-011
704
root  -57.3533 39.7958 -14.3988 -9.35309 62.267 1.84982
RightUpLeg  10.246 -1.42291 3.76934
RightLeg  5.79534 5.20833 -2.87474
RightFoot  -7.93172 -0.103798 1.67828
RightToes  5.82063e-011 0 -3.6325e-017
Spine  13.4927 2.15257 11.9887
Spine1  -0.0551236 5.62555 -7.40776
HEad  -1.34382 -18.5309 -3.72434
LeftShoulder1  2.98814 -3.50564 -36.5541
LeftArm  12.7876 8.49802 -28.8609
LeftForeArm  0.395623 -7.2781 -16.3517
LeftHand  -1.2802 -5.73427 13.6235
RightShoulder  10.1518 9.07288 68.5016
RightArm  14.1491 6.70108 -4.35738
RightForeArm  17.4774 0.266289 15.8775
RightHand  1.93647 20.5791 8.06324
LeftUpLeg  4.70392 1.717 10.9731
LeftLeg  27.4509 2.69145 1.85264
LeftFoot  -5.73597 0.170109 -2.77112
LeftToes  1.25507e-010 -3.78807e-010 5.71421e-011
